<svg id="Layer_1" data-name="Layer 1" xmlns="http://www.w3.org/2000/svg" viewBox="0 0 72 72"><defs><style>.cls-1,.cls-2,.cls-3{fill:none;stroke:#000;stroke-miterlimit:10;}.cls-1{stroke-width:2.6px;}.cls-2{stroke-width:0.8px;}.cls-3{stroke-linecap:round;}</style></defs><title>card_number_icon_1</title><polygon class="cls-1" points="36.14 2.4 11.57 36 36.14 69.6 60.72 36 36.14 2.4"/><polygon class="cls-2" points="36.14 7.83 15.54 36 36.14 64.17 56.75 36 36.14 7.83"/><path d="M31.23,49.42c-2.23-.06-3.52-1-3.58-4.35,0-1.61-.08-5.82-.1-10.16,0-3.9-.24-7.75-.2-9.13.08-2.75,1.84-3.38,4.06-3.46,0,0,3-.29,6.86-.42,5.11-.19,6.78.88,7.1,3.76.21,1.82.24,8.58.09,13.22-.1,3.14-.24,5.6-.26,6.49-.05,2.2-.44,3.79-3.85,4.18C39.63,49.74,31.31,49.42,31.23,49.42Zm9.9-2.11h0Zm-9.25-22a1.71,1.71,0,0,0-1.51,1.47c-.1.42.06,3.31,0,7-.08,4.5.08,10.43.09,10.87,0,.79.27,1.54,1,1.52,0,0,10.51.54,10.84-.47s.48-18.56-.09-20.09S32.61,25.22,31.88,25.33Z"/><path class="cls-3" d="M44.29,50.44a2,2,0,0,0,.46-.27"/><path class="cls-3" d="M36.2,50.78a27.84,27.84,0,0,0,6.35.1"/><path class="cls-3" d="M33.28,20.77c1.08-.06,2.23-.11,3.16-.21"/><path class="cls-3" d="M30.49,21.06c.24,0,.52-.09.82-.13"/><path class="cls-3" d="M41.52,40.93a18.17,18.17,0,0,1-.14,2.65"/><path d="M28.36,37.48c3.56,0,16.58-1.48,16.53-1.74s0-1.91,0-1.91c-3.67-.34-16.24,1.22-16.57,1.81A2.73,2.73,0,0,0,28.36,37.48Z"/></svg>