<svg id="Layer_1" data-name="Layer 1" xmlns="http://www.w3.org/2000/svg" viewBox="0 0 48 48"><defs><style>.cls-1{fill:none;stroke:#000;stroke-linecap:round;stroke-miterlimit:10;stroke-width:1.16px;}</style></defs><title>card_number_icon_2</title><path d="M19.85,39.78c-2.58-.07-4.07-1.14-4.13-5,0-1.85-.11-6.73-.13-11.75,0-4.53-.28-9-.23-10.58.09-3.19,2.13-3.92,4.7-4,0,0,3.5-.33,8-.49,5.92-.21,7.85,1,8.22,4.36.24,2.11.28,9.94.11,15.31-.12,3.64-.28,6.49-.31,7.52-.05,2.54-.5,4.39-4.45,4.83C29.59,40.16,20,39.79,19.85,39.78Zm11.47-2.44h0ZM21.45,11.77a2.15,2.15,0,0,0-2,1.64c-.11.49.08,4,0,8.26-.1,5.21.46,12.09.47,12.61,0,.9.32,1.77,1.17,1.76,0,0,9.83.46,10.21-.71s1.1-21.09.44-22.86S22.29,11.64,21.45,11.77Z"/><path class="cls-1" d="M35,41a2.4,2.4,0,0,0,.53-.32"/><path class="cls-1" d="M25.61,41.36a31.44,31.44,0,0,0,7.35.11"/><path class="cls-1" d="M22.23,6.61c1.26-.07,2.59-.13,3.65-.25"/><path class="cls-1" d="M19,7c.28-.06.6-.11.95-.16"/><path class="cls-1" d="M30.85,30A20.7,20.7,0,0,1,30.7,33"/><path d="M16.54,26c4.11,0,19.19-1.72,19.13-2s0-2.22,0-2.22c-4.24-.4-18.81,1.41-19.18,2.09A3.18,3.18,0,0,0,16.54,26Z"/></svg>