<svg id="Layer_1" data-name="Layer 1" xmlns="http://www.w3.org/2000/svg" viewBox="0 0 72 72"><defs><style>.cls-1,.cls-2,.cls-3{fill:none;stroke:#000;stroke-miterlimit:10;}.cls-1{stroke-width:2.19px;}.cls-2{stroke-width:0.73px;}.cls-3{stroke-linecap:round;}</style></defs><title>description_icon_alt</title><polygon class="cls-1" points="36.14 2.4 11.57 36 36.14 69.6 60.72 36 36.14 2.4"/><polygon class="cls-2" points="36.14 6.61 14.65 36 36.14 65.39 57.64 36 36.14 6.61"/><path d="M35.38,45c-.62,0-1.47-.12-1.53-1.13-.11-1.81-.47-5.54,2.37-6.6A6.11,6.11,0,0,0,40.16,31a4.48,4.48,0,0,0-3.76-4.59c-2.24-.5-5.41.41-5.7,3.94-.05.62-3.23,1.42-3.23-.54,0-3.53,2.83-8.3,10.2-6.77a8.78,8.78,0,0,1,6.44,8.08c.13,5.23-2.76,7.42-5.92,8.67A8.55,8.55,0,0,0,37.46,44C37.48,44.84,36,45,35.38,45Z"/><path d="M37.16,49.61c.91.65,1.31,1.66.13,3a2.24,2.24,0,0,1-3.2.1A2.32,2.32,0,0,1,34,49.26,2,2,0,0,1,37.16,49.61Z"/><path class="cls-3" d="M33,38.21a4.88,4.88,0,0,1,3.39-2.52"/><path class="cls-3" d="M40,22.28a8.25,8.25,0,0,1,4.37,4.8"/><path class="cls-3" d="M36.18,21.58a6.09,6.09,0,0,1,1.13,0"/><path class="cls-3" d="M36.88,47.24a2.51,2.51,0,0,0-2.93.5"/></svg>