<svg id="Layer_1" data-name="Layer 1" xmlns="http://www.w3.org/2000/svg" viewBox="0 0 72 72"><defs><style>.cls-1,.cls-2,.cls-3{fill:none;stroke:#000;stroke-miterlimit:10;}.cls-1{stroke-linecap:round;}.cls-2{stroke-width:2.6px;}.cls-3{stroke-width:0.8px;}</style></defs><title>price_icon_1</title><path class="cls-1" d="M50.43,49.7a4.08,4.08,0,0,1-1.42.79,8.65,8.65,0,0,1,0,1.89"/><path d="M40.78,36.2a20,20,0,0,0-4-1.58c-1.36-.39-2.25-.47-2.82-.95a2.31,2.31,0,0,1-.92-2.11,2.23,2.23,0,0,1,2.42-1.89c2.21.49,2.59.95,2.63,2.1l0,.93s3.07.25,4.54-.47c-.15-2.73-.66-4.2-1.48-5a7.6,7.6,0,0,0-3.61-2s0-2.92-.37-3.14a26.4,26.4,0,0,0-4.18,0s0,3.2-.44,3.32a11.66,11.66,0,0,0-3.13,1.63c-1.28,1-1.53,3.05-1.57,4.88-.09,4.38,3.86,6.51,7.16,7.2,2,.43,3.25,2.25,2.83,3.65-.21.7-1.43,2.38-4.18,1.08-.71-.57-.84-3.05-1-3.32s-3.62-.18-4.42.08c-1.27,1.37-.25,5.25,1,6.49,1.05,1.07,3.37,1.49,3.91,1.86.24.73,0,2.38.27,2.71s3.73.28,4.16-.51a5.71,5.71,0,0,0,.22-2.57,7.17,7.17,0,0,0,3.8-2.08,6.38,6.38,0,0,0,1.57-4.69C43.17,40.72,43.23,37.52,40.78,36.2Z"/><path class="cls-1" d="M41.59,24a6.08,6.08,0,0,1,2.25,4"/><path class="cls-1" d="M39.78,23.16a3.3,3.3,0,0,1,.62.15"/><path class="cls-1" d="M45.29,47.24a3.19,3.19,0,0,0,.31.75"/><path class="cls-1" d="M38,13.88c.87,1.18,1.87,2.43,2.08,2.82"/><path class="cls-1" d="M36.66,11.94c.09.18.23.41.4.68"/><polygon class="cls-2" points="36.14 2.4 11.57 36 36.14 69.6 60.72 36 36.14 2.4"/><polygon class="cls-3" points="36.14 7.83 15.54 36 36.14 64.17 56.75 36 36.14 7.83"/></svg>