<svg id="Layer_1" data-name="Layer 1" xmlns="http://www.w3.org/2000/svg" viewBox="0 0 48 48"><defs><style>.cls-1{fill:none;stroke:#000;stroke-linecap:round;stroke-miterlimit:10;stroke-width:1.15px;}</style></defs><title>price_icon_2</title><path d="M30.72,24.09a23.44,23.44,0,0,0-4.56-1.81c-1.57-.44-2.59-.54-3.23-1.09a2.65,2.65,0,0,1-1.06-2.42,2.56,2.56,0,0,1,2.77-2.17c2.53.56,3,1.09,3,2.41l0,1.07s3.52.28,5.21-.54c-.18-3.13-.76-4.82-1.7-5.71a8.62,8.62,0,0,0-4.13-2.23s0-3.35-.43-3.61-4.8,0-4.8,0,0,3.67-.5,3.81a13.38,13.38,0,0,0-3.59,1.86C16.29,14.78,16,17.17,16,19.26c-.11,5,4.42,7.47,8.2,8.26,2.31.49,3.73,2.58,3.25,4.19-.24.79-1.64,2.72-4.8,1.24-.81-.66-1-3.51-1.13-3.81s-4.15-.21-5.06.09c-1.47,1.57-.3,6,1.11,7.44,1.21,1.23,3.87,1.71,4.49,2.13.27.84,0,2.74.31,3.11s4.27.32,4.77-.58a6.66,6.66,0,0,0,.25-3A8.12,8.12,0,0,0,31.72,36a7.26,7.26,0,0,0,1.8-5.37C33.47,29.27,33.53,25.61,30.72,24.09Z"/><path class="cls-1" d="M31.65,10.09a6.92,6.92,0,0,1,2.57,4.54"/><path class="cls-1" d="M29.57,9.13a4.1,4.1,0,0,1,.71.18"/><path class="cls-1" d="M35.89,36.75a3.7,3.7,0,0,0,.36.86"/></svg>