<svg id="Layer_1" data-name="Layer 1" xmlns="http://www.w3.org/2000/svg" viewBox="0 0 72 72"><defs><style>.cls-1,.cls-2,.cls-3{fill:none;stroke:#000;stroke-miterlimit:10;}.cls-1{stroke-width:2.6px;}.cls-2{stroke-width:0.8px;}.cls-3{stroke-linecap:round;}</style></defs><title>rating_icon_1</title><polygon class="cls-1" points="36.14 2.4 11.57 36 36.14 69.6 60.72 36 36.14 2.4"/><polygon class="cls-2" points="36.14 7.83 15.54 36 36.14 64.17 56.75 36 36.14 7.83"/><path d="M36.57,26.78c1,1.59,1.87,4.86,2.77,5.41.58.36,3,.36,4.2.92a39,39,0,0,0-4,2.75c-.3.44,1.83,6.49,1.87,6.73-.68-.34-5.09-3.35-5.09-3.35a40.87,40.87,0,0,1-4.7,2.7c.25-.78,1.61-5.12,1.41-5.85,0,0-3.53-2-5.29-3.15,1.81-.36,5.53-.3,6-.48Zm-.3-5.58c-.66,0-4.41,8.84-4.41,8.84s-9.69,1.64-9.92,2,6,4.67,7.19,5.28c.19.72-2.58,9.42-2.57,9.42C28,46.75,36,44,36,44A32.65,32.65,0,0,0,40,46.1,24.34,24.34,0,0,0,45.48,48s-.16-2.47-.55-4.84a36.77,36.77,0,0,0-1.87-5.91l2.76-2.13c2.32-1.79,4.16-3.42,3.74-3.63-.21-.11-7.6-2-7.6-2S36.93,21.2,36.27,21.2Z"/><path class="cls-3" d="M46,38.84c.45,1.55.89,3.1.89,3.1"/><path class="cls-3" d="M27.69,28.39a7.5,7.5,0,0,0,2.55-.76,8.73,8.73,0,0,0,1-2.41"/><path class="cls-3" d="M25.49,28.68l.69-.07"/></svg>