<svg id="Layer_1" data-name="Layer 1" xmlns="http://www.w3.org/2000/svg" viewBox="0 0 48 48"><defs><style>.cls-1{fill:none;stroke:#000;stroke-linecap:round;stroke-miterlimit:10;}</style></defs><title>wifi_icon</title><path d="M9.12,20.67c-.6.58-2.89-1-2.41-2.08C9.93,11.64,18.2,9.29,25,9.08c10.13-.31,16.3,4.93,17.46,8.1-.29,1.13-1.11,2.84-3.06,1.72s-8.9-5.72-15-5.72S9.72,20.09,9.12,20.67Z"/><path d="M12.85,27c-1.33-.48-3.39-2.16-2.5-2.85,2.52-1.94,5.1-6.68,13.58-6.68,6.5,0,11.46,1.55,14.57,6.26,0,0-1.81,2.5-2.51,2.12a19.24,19.24,0,0,0-11.33-4.1C20,21.68,14.25,27,12.85,27Z"/><path d="M17.22,34c-.68-.28-2.59-1.75-2.34-2.63s4.58-3.7,8.19-3.7,8,.4,10.16,3.59c.71,1-1.85,3-1.85,3C23.53,29.77,18.35,34,17.22,34Z"/><path d="M23.71,43.38c.43.29,1.75-1.1,2.48-1.84s3-3.45,3-3.45c-3.33-4-9.63-1.74-9.83-.44S23.29,43.09,23.71,43.38Z"/><path class="cls-1" d="M17.49,40c.9,1.17,1.85,2.18,1.85,2.18"/><path class="cls-1" d="M16.05,36.72c-.25.29-.11.84.22,1.49"/><path class="cls-1" d="M28.53,7.26c8.31.52,11.8,3.85,11.8,3.85"/><path class="cls-1" d="M23,7.33l1.3-.09"/></svg>